# xmcd
#
# Track frame offsets: 
#        150
#        16635
#        34062
#        60547
#        80585
#        97667
#        119537
#        143772
#        164257
#
# Disc length: 2364 seconds
#
# Revision: 0
# Processed by: cddbd v1.5.1PL2 Copyright (c) Steve Scherf et al.
# Submitted via: ExactAudioCopy v0.95b3
#
DISCID=64093a09
DTITLE=Nublues - Dreams Of A Blues Man
DYEAR=2004
DGENRE=Blues
TTITLE0=Swamp Thing
TTITLE1=Mississippi Rising
TTITLE2=Blues Man On The Run
TTITLE3=Dreams Of A Blues Man
TTITLE4=Conversation Breakdown
TTITLE5=Contradiction
TTITLE6=Memories Of A Good Time
TTITLE7=Missy Dee
TTITLE8=Hold Over Me
EXTD=
EXTT0=
EXTT1=
EXTT2=
EXTT3=
EXTT4=
EXTT5=
EXTT6=
EXTT7=
EXTT8=
PLAYORDER=
